<svg xmlns="http://www.w3.org/2000/svg" xmlns:xlink="http://www.w3.org/1999/xlink" xml:space="preserve" version="1.1" style="shape-rendering:geometricPrecision;text-rendering:geometricPrecision;image-rendering:optimizeQuality;" viewBox="0 0 333 416.25" x="0px" y="0px" fill-rule="evenodd" clip-rule="evenodd"><defs><style type="text/css">
   
    .fil0 {fill:black;fill-rule:nonzero}
   
  </style></defs><g><path class="fil0" d="M138 91c12,-18 32,-30 55,-30 41,0 72,40 63,80 56,21 40,103 -18,103l-42 0 0 -25 5 0c11,0 18,-13 13,-22l-35 -60c-6,-10 -20,-10 -25,0l-34 59c-7,10 0,23 12,23l5 0 0 25 -41 0c-57,0 -73,-78 -22,-101 -8,-39 30,-67 64,-52zm47 116l0 57c0,4 -4,8 -8,8l-21 0c-4,0 -8,-4 -8,-8l0 -57 -16 0c-3,0 -4,-3 -3,-5l35 -59c1,-2 4,-2 5,0l35 60c1,2 -1,4 -3,4l-16 0z"/></g><text x="0" y="348" fill="#000000" font-size="5px" font-weight="bold" font-family="'Helvetica Neue', Helvetica, Arial-Unicode, Arial, Sans-serif">Created by flamingo</text><text x="0" y="353" fill="#000000" font-size="5px" font-weight="bold" font-family="'Helvetica Neue', Helvetica, Arial-Unicode, Arial, Sans-serif">from the Noun Project</text></svg>